<svg id="Capa_1" data-name="Capa 1" xmlns="http://www.w3.org/2000/svg" viewBox="0 0 200 200"><defs><style>.cls-1{fill:none;stroke:#000;stroke-miterlimit:10;}</style></defs><path d="M73.4,73.92l4.4,27.29q1.1,6.74,2.18,13.49a100,100,0,0,0,2.8,13.14,1.51,1.51,0,0,0,2.89,0Q92.56,99.12,99.45,70.4c.45-1.88-2.45-2.68-2.9-.8L82.78,127h2.89a99.36,99.36,0,0,1-2.8-13.14q-1.09-6.75-2.18-13.49l-4.4-27.29c-.31-1.9-3.2-1.09-2.89.8Z"/><path d="M96.55,72.4q6.08,29.28,14.88,57.91c.57,1.84,3.46,1.06,2.89-.8q-8.79-28.59-14.87-57.91c-.4-1.89-3.29-1.09-2.9.8Z"/><path d="M114.26,130.17q3.9-30.15,9.68-60c.36-1.89-2.53-2.69-2.9-.8q-5.83,30.25-9.78,60.83c-.25,1.91,2.75,1.89,3,0Z"/><path d="M129,67.65c-17.2-.05-34.49-.08-51.51,2.67A40.69,40.69,0,0,0,67.4,73c-2.82,1.24-6.8,3.56-7.43,6.87s1.58,6.16,4.06,7.92,5.78,2.71,8.81,3.58c14.76,4.25,30,7.23,44.27,12.93a99.94,99.94,0,0,1,10.4,4.82c2.88,1.55,6.59,3.22,8.46,6,2.06,3.12.07,6.8-2.8,8.55-3.37,2.06-7.68,2.43-11.52,2.65-8.62.49-17.4-.1-26-.71s-17.34-1.54-25.95-2.82q-3.17-.46-6.31-1c-1.88-.31-2.7,2.58-.79,2.89a348.42,348.42,0,0,0,51.69,4.73,74.85,74.85,0,0,0,12.87-.68c3.55-.56,7.3-1.66,9.87-4.32,2.39-2.49,3.59-6.19,2.21-9.48s-4.5-5.16-7.39-6.85c-13.26-7.79-28.27-11.76-43-15.58-3.74-1-7.47-1.93-11.19-2.95a57.46,57.46,0,0,1-9.87-3.12A10.65,10.65,0,0,1,64.15,84c-.93-1.09-1.76-2.86-.94-4.21a10.89,10.89,0,0,1,4.11-3.34,23.24,23.24,0,0,1,4.82-1.9,78.62,78.62,0,0,1,11.51-2.06c4.27-.53,8.56-.91,12.86-1.18,8.69-.54,17.4-.62,26.11-.62H129a1.5,1.5,0,0,0,0-3Z"/><path d="M89.94,48.16c5.15,28.44,8.58,57.15,11.61,85.89.87,8.16,1.69,16.32,2.52,24.48.2,1.9,3.2,1.92,3,0-2.94-29-5.9-58-10.23-86.9q-1.83-12.16-4-24.27c-.34-1.9-3.23-1.1-2.89.8Z"/><path d="M56.86,64.18l56-3.93,15.86-1.11c1.92-.14,1.93-3.14,0-3l-56,3.93L56.86,61.18c-1.92.13-1.93,3.13,0,3Z"/><path d="M67.69,68.64a388.81,388.81,0,0,1,57.19-2.35,98,98,0,0,1,13.48,1,32.33,32.33,0,0,1,6.12,1.64,12,12,0,0,1,5,3c1.14,1.37,1.27,3.3-.44,4.22s-3.63.84-5.36,1c-4.77.48-9.55,1-14.33,1.35a276.42,276.42,0,0,1-32.68,1.15c-1.93-.06-1.93,2.94,0,3a270.84,270.84,0,0,0,31.2-1c5.19-.43,10.38-.94,15.56-1.45,3.5-.35,8.7-.48,9.78-4.72,1.14-4.5-3.21-7.46-6.74-9A41,41,0,0,0,133,63.67c-10.14-.74-20.38-.72-30.53-.47q-17.46.44-34.82,2.44c-1.9.21-1.92,3.22,0,3Z"/><path d="M129.05,81q1.65,11.82,2.53,23.71c.14,1.91,3.15,1.93,3,0q-.93-12.3-2.64-24.5a1.5,1.5,0,0,0-1.84-1,1.54,1.54,0,0,0-1,1.84Z"/><path d="M135.92,84.35c.13,4.66.39,9.31.75,14a1.54,1.54,0,0,0,1.5,1.5,1.5,1.5,0,0,0,1.5-1.5c-.36-4.64-.62-9.29-.75-14-.06-1.92-3.06-1.93-3,0Z"/><path d="M141.05,83.69l.2,14.16c0,1.93,3,1.93,3,0l-.2-14.16a1.5,1.5,0,0,0-3,0Z"/><path d="M69.87,94.47q1.55,10.19,2.86,20.4a1.56,1.56,0,0,0,1.5,1.5c.73,0,1.61-.7,1.5-1.5q-1.37-10.62-3-21.2a1.5,1.5,0,0,0-2.9.8Z"/><path d="M65.87,94.7q1.48,8.61,2.33,17.31a1.55,1.55,0,0,0,1.5,1.5,1.5,1.5,0,0,0,1.5-1.5q-.89-9.11-2.44-18.11a1.51,1.51,0,0,0-1.84-1.05,1.53,1.53,0,0,0-1,1.85Z"/><path d="M85.26,53.6l.66,6a1.61,1.61,0,0,0,.44,1.06,1.5,1.5,0,0,0,2.56-1.06l-.66-6a1.64,1.64,0,0,0-.43-1.07,1.51,1.51,0,0,0-2.57,1.07Z"/><path d="M96.05,53.16l.62,6.2a1.61,1.61,0,0,0,.44,1.06,1.5,1.5,0,0,0,1.06.44,1.52,1.52,0,0,0,1.5-1.5l-.62-6.2a1.61,1.61,0,0,0-.44-1.06,1.5,1.5,0,0,0-2.56,1.06Z"/><circle class="cls-1" cx="99" cy="91" r="50.5"/><path d="M72,46.53l-.2.19a1.14,1.14,0,0,0-.31.48,1.17,1.17,0,0,0-.13.58,1.15,1.15,0,0,0,.13.58,1,1,0,0,0,.31.48l.3.24a1.57,1.57,0,0,0,.76.2l.4-.05a1.49,1.49,0,0,0,.66-.39l.2-.19a1.21,1.21,0,0,0,.31-.49,1.22,1.22,0,0,0,.13-.57,1.27,1.27,0,0,0-.13-.58,1.11,1.11,0,0,0-.31-.48l-.31-.24a1.5,1.5,0,0,0-.75-.2l-.4,0a1.39,1.39,0,0,0-.66.39Z"/><path d="M83.52,42.5v.2a1.14,1.14,0,0,0,.13.57,1.11,1.11,0,0,0,.31.49,1.24,1.24,0,0,0,.48.31,1.29,1.29,0,0,0,.58.13l.4-.06a1.51,1.51,0,0,0,.66-.38l.24-.31a1.5,1.5,0,0,0,.2-.75v-.2a1.06,1.06,0,0,0-.13-.58,1.14,1.14,0,0,0-.31-.48,1,1,0,0,0-.48-.31A1.15,1.15,0,0,0,85,41l-.4,0a1.49,1.49,0,0,0-.66.39l-.23.3a1.48,1.48,0,0,0-.21.76Z"/><path d="M99.11,42a1.5,1.5,0,0,0,0-3,1.5,1.5,0,0,0,0,3Z"/><path d="M119.07,46.35a1.5,1.5,0,0,0,0-3,1.5,1.5,0,0,0,0,3Z"/><path d="M136.09,57.89a1.5,1.5,0,0,0,0-3,1.5,1.5,0,0,0,0,3Z"/><path d="M60.76,59.07a1.5,1.5,0,0,0,0-3,1.5,1.5,0,0,0,0,3Z"/><path d="M52.74,71.39a1.5,1.5,0,0,0,0-3,1.5,1.5,0,0,0,0,3Z"/><path d="M48.63,85.48a1.5,1.5,0,0,0,0-3,1.5,1.5,0,0,0,0,3Z"/><path d="M48.83,100a1.5,1.5,0,0,0,0-3,1.5,1.5,0,0,0,0,3Z"/><path d="M53.13,113.26a1.5,1.5,0,0,0,0-3,1.5,1.5,0,0,0,0,3Z"/><path d="M57.11,122.13v.39a1.06,1.06,0,0,0,.13.58,1.36,1.36,0,0,0,.79.79,1.06,1.06,0,0,0,.58.13l.4,0a1.49,1.49,0,0,0,.66-.39l.23-.3a1.48,1.48,0,0,0,.21-.76v-.39a1.15,1.15,0,0,0-.13-.58,1.36,1.36,0,0,0-.79-.79,1.15,1.15,0,0,0-.58-.13l-.4.05a1.59,1.59,0,0,0-.66.39l-.24.3a1.57,1.57,0,0,0-.2.76Z"/><path d="M70.54,131.39h-.12a1.5,1.5,0,0,0,0,3h.12a1.5,1.5,0,0,0,0-3h-.12a1.5,1.5,0,0,0,0,3h.12a1.5,1.5,0,0,0,0-3Z"/><path d="M84,140.65h.2a1.06,1.06,0,0,0,.58-.13,1.14,1.14,0,0,0,.48-.31,1,1,0,0,0,.31-.48,1.15,1.15,0,0,0,.13-.58l0-.4a1.59,1.59,0,0,0-.39-.66l-.3-.23a1.48,1.48,0,0,0-.76-.21H84a1.11,1.11,0,0,0-.57.13,1.21,1.21,0,0,0-.49.31,1.24,1.24,0,0,0-.31.48,1.29,1.29,0,0,0-.13.58l.06.4a1.45,1.45,0,0,0,.38.66l.31.24a1.5,1.5,0,0,0,.75.2Z"/><path d="M98.13,143a1.5,1.5,0,0,0,0-3,1.5,1.5,0,0,0,0,3Z"/><path d="M111.24,141.43a1.5,1.5,0,0,0,0-3,1.5,1.5,0,0,0,0,3Z"/><path d="M125.33,135.76a1.5,1.5,0,0,0,0-3,1.5,1.5,0,0,0,0,3Z"/><path d="M135.5,127.35a1.5,1.5,0,0,0,0-3,1.5,1.5,0,0,0,0,3Z"/><path d="M142.93,117a1.5,1.5,0,0,0,0-3,1.5,1.5,0,0,0,0,3Z"/><path d="M147.63,105.43a1.5,1.5,0,0,0,0-3,1.5,1.5,0,0,0,0,3Z"/><path d="M149.2,90.37a1.5,1.5,0,0,0,0-3,1.5,1.5,0,0,0,0,3Z"/><path d="M145.28,72.57a1.5,1.5,0,0,0,0-3,1.5,1.5,0,0,0,0,3Z"/></svg>